<?xml version="1.0"?>
<svg xmlns="http://www.w3.org/2000/svg" viewBox="0 0 50 50">
    <path style="line-height:normal;text-indent:0;text-align:start;text-decoration-line:none;text-decoration-style:solid;text-decoration-color:#000;text-transform:none;block-progression:tb;isolation:auto;mix-blend-mode:normal" d="M 23 5 C 21.904545 5 21 5.9045455 21 7 L 21 12 L 6.6679688 12 C 4.1228041 12 2 14.018641 2 16.529297 L 2 39.470703 C 2 41.981359 4.1228041 44 6.6679688 44 L 43.332031 44 C 45.877196 44 48 41.982071 48 39.470703 L 48 16.529297 C 48 14.018641 45.878406 12 43.333984 12 L 30 12 L 30 7 C 30 5.9045455 29.095455 5 28 5 L 23 5 z M 23 7 L 28 7 L 28 12.832031 A 1.0001 1.0001 0 0 0 28 13.158203 L 28 15 L 23 15 L 23 13.167969 A 1.0001 1.0001 0 0 0 23 12.841797 L 23 7 z M 6.6679688 14 L 21 14 L 21 15 C 21 16.095455 21.904545 17 23 17 L 28 17 C 29.095455 17 30 16.095455 30 15 L 30 14 L 43.333984 14 C 44.837563 14 46 15.141952 46 16.529297 L 46 39.470703 C 46 40.859336 44.836867 42 43.332031 42 L 6.6679688 42 C 5.1631334 42 4 40.858048 4 39.470703 L 4 16.529297 C 4 15.141952 5.1631334 14 6.6679688 14 z M 14.960938 18 C 12.916299 18 11.375484 18.94992 10.726562 20.375 C 10.144745 21.652715 10.227309 23.148015 10.558594 24.662109 C 10.354393 25.002041 10.222321 25.405853 10.283203 25.910156 C 10.354233 26.497381 10.517397 26.97056 10.808594 27.339844 C 10.899504 27.455128 11.045564 27.4494 11.158203 27.535156 C 11.255273 27.947731 11.352607 28.367694 11.523438 28.707031 C 11.642167 28.942876 11.768237 29.156752 11.912109 29.349609 C 11.926839 29.369349 11.960219 29.38677 11.974609 29.40625 C 11.977509 29.763098 11.976605 30.108994 11.953125 30.470703 C 11.887155 30.602397 11.736748 30.775896 11.292969 30.996094 C 10.812609 31.234443 10.119901 31.470747 9.3886719 31.783203 C 8.6574429 32.095659 7.8706584 32.490449 7.2128906 33.152344 C 6.5551228 33.814239 6.0726608 34.770317 6.0019531 35.939453 A 1.0001 1.0001 0 0 0 6 36 L 6 37 A 1.0001 1.0001 0 0 0 7 38 L 23 38 A 1.0001 1.0001 0 0 0 24 37 L 24 36 A 1.0001 1.0001 0 0 0 23.998047 35.939453 C 23.927697 34.771228 23.448332 33.816509 22.792969 33.154297 C 22.137606 32.492085 21.351722 32.095799 20.623047 31.783203 C 19.894372 31.470608 19.204907 31.234266 18.726562 30.996094 C 18.284707 30.776089 18.134697 30.603454 18.068359 30.470703 C 18.044749 30.107004 18.043915 29.759766 18.046875 29.400391 C 18.061705 29.379891 18.096198 29.360574 18.111328 29.339844 C 18.253231 29.145484 18.378813 28.932991 18.494141 28.697266 C 18.659932 28.358393 18.751771 27.94168 18.845703 27.533203 C 18.957131 27.448023 19.101378 27.454013 19.191406 27.339844 C 19.482963 26.970103 19.64639 26.497518 19.716797 25.910156 C 19.778577 25.398435 19.641847 24.990466 19.431641 24.648438 C 19.636504 23.929337 19.894993 23.052167 19.808594 21.953125 C 19.755874 21.282523 19.587436 20.57082 19.136719 19.951172 C 18.729075 19.390742 18.050298 18.995904 17.259766 18.826172 C 16.646027 18.265195 15.83924 18 14.960938 18 z M 14.960938 20 C 15.715067 20 16.035124 20.256242 16.021484 20.232422 A 1.0001 1.0001 0 0 0 16.751953 20.726562 C 17.20888 20.789703 17.370436 20.92393 17.519531 21.128906 C 17.668626 21.333883 17.780421 21.676477 17.814453 22.109375 C 17.882513 22.975172 17.615446 24.117805 17.451172 24.609375 A 1.0001 1.0001 0 0 0 17.757812 25.691406 C 17.760213 25.701966 17.733499 25.646775 17.730469 25.671875 C 17.696169 25.958051 17.650012 26.014374 17.638672 26.035156 A 1.0001 1.0001 0 0 0 16.996094 26.863281 C 16.967584 27.127801 16.841861 27.52281 16.697266 27.818359 C 16.624966 27.966134 16.546847 28.090641 16.496094 28.160156 C 16.461935 28.206942 16.451437 28.208772 16.488281 28.183594 A 1.0001 1.0001 0 0 0 16.039062 29.017578 C 16.039062 29.608686 16.015251 30.130171 16.082031 30.869141 A 1.0001 1.0001 0 0 0 16.140625 31.128906 C 16.459288 31.980401 17.170313 32.455688 17.835938 32.787109 C 18.501562 33.118531 19.204736 33.350314 19.835938 33.621094 C 20.467137 33.891873 21.009738 34.195415 21.371094 34.560547 C 21.71787 34.910947 21.920227 35.321568 21.976562 36 L 8.0234375 36 C 8.0799395 35.322453 8.2823518 34.913194 8.6308594 34.5625 C 8.9940291 34.197051 9.5417605 33.893966 10.175781 33.623047 C 10.809802 33.352128 11.514063 33.118354 12.181641 32.787109 C 12.849218 32.455865 13.561651 31.981859 13.880859 31.128906 A 1.0001 1.0001 0 0 0 13.941406 30.869141 C 14.008186 30.130171 13.982422 29.608686 13.982422 29.017578 A 1.0001 1.0001 0 0 0 13.523438 28.175781 C 13.56457 28.202968 13.55232 28.201533 13.515625 28.152344 C 13.462715 28.081424 13.38299 27.956374 13.308594 27.808594 C 13.159802 27.513033 13.031516 27.11949 13.003906 26.863281 A 1.0001 1.0001 0 0 0 12.361328 26.037109 C 12.350218 26.016849 12.304331 25.959609 12.269531 25.671875 C 12.265331 25.637435 12.228352 25.707089 12.232422 25.699219 A 1.0001 1.0001 0 0 0 12.568359 24.673828 C 12.193744 23.240018 12.202543 21.961248 12.546875 21.205078 C 12.891192 20.44891 13.439574 20 14.960938 20 z M 26 21 L 26 23 L 44 23 L 44 21 L 26 21 z M 26 25 L 26 27 L 40 27 L 40 25 L 26 25 z M 26 29 L 26 31 L 37 31 L 37 29 L 26 29 z M 26 33 L 26 35 L 40 35 L 40 33 L 26 33 z" font-weight="400" font-family="sans-serif" white-space="normal" overflow="visible"/>
</svg>
